name C:\Users\u0101727\Documents\MyRepositories\upper-imu-dc\Results\main_tracking\Case_15\kinematics.mot
datacolumns 10
datarows 52
range 6.25000000 6.76000000
endheader 
time	clav_prot	clav_elev	scapula_abduction	scapula_elevation	scapula_upward_rot	scapula_winging	plane_elv	shoulder_elv	axial_rot	
          6.25000000	        -42.06265264	          8.62203546	         -3.36542517	         -2.73124911	         73.53945768	        -11.69576909	         25.87034404	         88.32112773	         -0.25127038	
          6.26000000	        -42.05926590	          8.57403043	         -3.22609798	         -2.75372652	         73.69081201	        -11.66616724	         26.08081165	         88.38862037	         -0.32722787	
          6.27000000	        -42.05544415	          8.52923480	         -3.08798503	         -2.77394869	         73.84095703	        -11.63710663	         26.29658095	         88.45177019	         -0.40014632	
          6.28000000	        -42.05213306	          8.48976485	         -2.95272815	         -2.79051586	         73.99052987	        -11.60967303	         26.51866790	         88.50909462	         -0.46923996	
          6.29000000	        -42.04971782	          8.45704284	         -2.82095757	         -2.80246104	         74.14001599	        -11.58445116	         26.74723593	         88.55996121	         -0.53426743	
          6.30000000	        -42.04801140	          8.43157384	         -2.69225424	         -2.80940511	         74.28969806	        -11.56145779	         26.98168819	         88.60465600	         -0.59550597	
          6.31000000	        -42.04637572	          8.41288909	         -2.56536483	         -2.81160852	         74.43962458	        -11.54019683	         27.22091126	         88.64427203	         -0.65357108	
          6.32000000	        -42.04394596	          8.39967578	         -2.43861132	         -2.80990231	         74.58961434	        -11.51982435	         27.46359611	         88.68044031	         -0.70915521	
          6.33000000	        -42.03990927	          8.39006518	         -2.31040116	         -2.80551286	         74.73930280	        -11.49938722	         27.70856044	         88.71495964	         -0.76276262	
          6.34000000	        -42.03377782	          8.38201954	         -2.17972268	         -2.79981604	         74.88822848	        -11.47808257	         27.95499825	         88.74940094	         -0.81451714	
          6.35000000	        -42.02559069	          8.37373869	         -2.04650522	         -2.79406988	         75.03594582	        -11.45547800	         28.20259269	         88.78477389	         -0.86410635	
          6.36000000	        -42.01598667	          8.36399547	         -1.91174056	         -2.78918437	         75.18214139	        -11.43163504	         28.45145465	         88.82134062	         -0.91089768	
          6.37000000	        -42.00611816	          8.35230601	         -1.77731181	         -2.78559151	         75.32672540	        -11.40709566	         28.70190145	         88.85863308	         -0.95421796	
          6.38000000	        -41.99742180	          8.33886911	         -1.64555674	         -2.78326374	         75.46987442	        -11.38272633	         28.95414894	         88.89567674	         -0.99373234	
          6.39000000	        -41.99131255	          8.32428065	         -1.51868926	         -2.78188294	         75.61201378	        -11.35946271	         29.20803045	         88.93135086	         -1.02980789	
          6.40000000	        -41.98890122	          8.30911969	         -1.39826734	         -2.78110276	         75.75374752	        -11.33803900	         29.46285071	         88.96476067	         -1.06373131	
          6.41000000	        -41.99082674	          8.29357805	         -1.28489164	         -2.78079365	         75.89575671	        -11.31879972	         29.71742384	         88.99549166	         -1.09767649	
          6.42000000	        -41.99724331	          8.27730464	         -1.17822547	         -2.78115543	         76.03869457	        -11.30166092	         29.97025403	         89.02367141	         -1.13440664	
          6.43000000	        -42.00794238	          8.25953190	         -1.07730059	         -2.78264824	         76.18310225	        -11.28622505	         30.21977079	         89.04984670	         -1.17679029	
          6.44000000	        -42.02254634	          8.23941301	         -0.98097315	         -2.78578375	         76.32935775	        -11.27199211	         30.46453430	         89.07475212	         -1.22727144	
          6.45000000	        -42.04069590	          8.21640290	         -0.88835375	         -2.79088378	         76.47765744	        -11.25857618	         30.70336012	         89.09907503	         -1.28744524	
          6.46000000	        -42.06216289	          8.19050739	         -0.79905895	         -2.79792050	         76.62801941	        -11.24584077	         30.93534713	         89.12331082	         -1.35785291	
          6.47000000	        -42.08685232	          8.16229685	         -0.71320794	         -2.80650704	         76.78029398	        -11.23390475	         31.15982146	         89.14775889	         -1.43803315	
          6.48000000	        -42.11470445	          8.13269182	         -0.63119411	         -2.81603514	         76.93417045	        -11.22302747	         31.37623428	         89.17264603	         -1.52677859	
          6.49000000	        -42.14555321	          8.10262891	         -0.55335485	         -2.82589093	         77.08918127	        -11.21343447	         31.58406616	         89.19830370	         -1.62248172	
          6.50000000	        -42.17901870	          8.07276588	         -0.47970154	         -2.83564609	         77.24471716	        -11.20517061	         31.78278343	         89.22529653	         -1.72344463	
          6.51000000	        -42.21449067	          8.04335928	         -0.40982745	         -2.84513677	         77.40006965	        -11.19804954	         31.97186012	         89.25442563	         -1.82807339	
          6.52000000	        -42.25120978	          8.01435758	         -0.34301084	         -2.85440089	         77.55450617	        -11.19171589	         32.15084232	         89.28659913	         -1.93494897	
          6.53000000	        -42.28840665	          7.98564589	         -0.27843860	         -2.86351480	         77.70736531	        -11.18578204	         32.31941817	         89.32262722	         -2.04282111	
          6.54000000	        -42.32544179	          7.95730970	         -0.21543696	         -2.87241668	         77.85814997	        -11.17997208	         32.47746933	         89.36302443	         -2.15059200	
          6.55000000	        -42.36189948	          7.92978483	         -0.15361488	         -2.88080516	         78.00659545	        -11.17421081	         32.62510096	         89.40788575	         -2.25733945	
          6.56000000	        -42.39761428	          7.90381679	         -0.09287773	         -2.88816569	         78.15269600	        -11.16862478	         32.76266340	         89.45686710	         -2.36238954	
          6.57000000	        -42.43263323	          7.88023190	         -0.03332127	         -2.89392375	         78.29668544	        -11.16345716	         32.89077797	         89.50926275	         -2.46541654	
          6.58000000	        -42.46713332	          7.85965527	          0.02493020	         -2.89763478	         78.43897640	        -11.15894580	         33.01034645	         89.56414041	         -2.56650515	
          6.59000000	        -42.50132248	          7.84230137	          0.08187620	         -2.89912599	         78.58007583	        -11.15521475	         33.12252670	         89.62048593	         -2.66613770	
          6.60000000	        -42.53534477	          7.82792519	          0.13774003	         -2.89853018	         78.72049386	        -11.15221556	         33.22865791	         89.67732594	         -2.76508946	
          6.61000000	        -42.56920070	          7.81591567	          0.19300979	         -2.89622424	         78.86065452	        -11.14971873	         33.33015210	         89.73382401	         -2.86425230	
          6.62000000	        -42.60272440	          7.80544888	          0.24839199	         -2.89272912	         79.00083579	        -11.14735245	         33.42841638	         89.78931035	         -2.96442767	
          6.63000000	        -42.63551607	          7.79582970	          0.30479127	         -2.88847848	         79.14110483	        -11.14467070	         33.52464475	         89.84335358	         -3.06611707	
          6.64000000	        -42.66691033	          7.78677335	          0.36326871	         -2.88362842	         79.28128278	        -11.14122123	         33.61965607	         89.89580618	         -3.16937638	
          6.65000000	        -42.69607608	          7.77839366	          0.42490525	         -2.87807111	         79.42098046	        -11.13659663	         33.71396291	         89.94673044	         -3.27378559	
          6.66000000	        -42.72210768	          7.77116760	          0.49070598	         -2.87146082	         79.55966041	        -11.13047018	         33.80781075	         89.99632702	         -3.37854920	
          6.67000000	        -42.74412833	          7.76586574	          0.56152266	         -2.86326021	         79.69673856	        -11.12262336	         33.90120851	         90.04483237	         -3.48272831	
          6.68000000	        -42.76137816	          7.76340219	          0.63802468	         -2.85283905	         79.83169066	        -11.11294003	         33.99396629	         90.09242957	         -3.58555541	
          6.69000000	        -42.77326832	          7.76458186	          0.72072621	         -2.83964317	         79.96412571	        -11.10135493	         34.08576469	         90.13921211	         -3.68672391	
          6.70000000	        -42.77939887	          7.76976325	          0.81004644	         -2.82342394	         80.09379787	        -11.08776505	         34.17628030	         90.18521653	         -3.78654220	
          6.71000000	        -42.77955047	          7.77852703	          0.90636262	         -2.80446819	         80.22055539	        -11.07193749	         34.26535283	         90.23050585	         -3.88589527	
          6.72000000	        -42.77366562	          7.78949385	          1.01001808	         -2.78372956	         80.34425602	        -11.05346106	         34.35313185	         90.27525717	         -3.98603998	
          6.73000000	        -42.76183695	          7.80040924	          1.12126051	         -2.76277763	         80.46469230	        -11.03177936	         34.44013480	         90.31980228	         -4.08831300	
          6.74000000	        -42.74431671	          7.80850374	          1.24011009	         -2.74355755	         80.58155844	        -11.00630872	         34.52719289	         90.36459325	         -4.19383349	
          6.75000000	        -42.72154623	          7.81101332	          1.36619391	         -2.72803683	         80.69446711	        -10.97660301	         34.61531178	         90.41010412	         -4.30326904	
          6.76000000	        -42.69418159	          7.80569554	          1.49861932	         -2.71785041	         80.80300568	        -10.94250420	         34.70548416	         90.45671148	         -4.41673155	
